<svg width="1750" height="721" xmlns="http://www.w3.org/2000/svg" xmlns:xlink="http://www.w3.org/1999/xlink" xml:space="preserve" overflow="hidden"><g transform="translate(-73 -277)"><rect x="972.5" y="277.5" width="850" height="720" stroke="#172C51" stroke-width="1.14583" stroke-miterlimit="8" fill="#DEEBF7"/><rect x="87.5002" y="277.5" width="888" height="720" stroke="#172C51" stroke-width="1.14583" stroke-miterlimit="8" fill="#E2F0D9"/><rect x="155.5" y="371.5" width="761" height="390" stroke="#000000" stroke-width="4.58333" stroke-miterlimit="8" fill="none"/><text font-family="Calibri,Calibri_MSFontService,sans-serif" font-weight="400" font-size="50" transform="matrix(1 0 0 1 188.44 454)">Model Analysis &amp; Metadata </text><text font-family="Calibri,Calibri_MSFontService,sans-serif" font-weight="400" font-size="50" transform="matrix(1 0 0 1 188.44 515)">Extraction</text><text font-family="Courier New,Courier New_MSFontService,sans-serif" font-weight="400" font-size="41" transform="matrix(1 0 0 1 188.44 564)">saveSlotsToDb</text><text font-family="Courier New,Courier New_MSFontService,sans-serif" font-weight="400" font-size="41" transform="matrix(1 0 0 1 508.701 564)">()</text><text font-family="Courier New,Courier New_MSFontService,sans-serif" font-weight="400" font-size="41" transform="matrix(1 0 0 1 253.753 614)">createVersionRecord</text><text font-family="Courier New,Courier New_MSFontService,sans-serif" font-weight="400" font-size="41" transform="matrix(1 0 0 1 721.826 614)">()</text><text font-family="Courier New,Courier New_MSFontService,sans-serif" font-weight="400" font-size="41" transform="matrix(1 0 0 1 253.753 663)">createDataConfigRecords</text><text font-family="Courier New,Courier New_MSFontService,sans-serif" font-weight="400" font-size="41" transform="matrix(1 0 0 1 820.367 663)">(</text><text font-family="Courier New,Courier New_MSFontService,sans-serif" font-weight="400" font-size="41" transform="matrix(1 0 0 1 845.003 663)">)</text><text font-family="Courier New,Courier New_MSFontService,sans-serif" font-weight="400" font-size="41" transform="matrix(1 0 0 1 253.753 713)">dataTableBuilder</text><text font-family="Courier New,Courier New_MSFontService,sans-serif" font-weight="400" font-size="41" transform="matrix(1 0 0 1 647.919 713)">()</text><path d="M919.5 441.208 1024.01 441.209 1024.01 445.792 919.5 445.792ZM1019.43 429.75 1046.93 443.5 1019.43 457.25Z"/><rect x="1047.5" y="374.5" width="704" height="138" stroke="#000000" stroke-width="4.58333" stroke-miterlimit="8" fill="none"/><text font-family="Calibri,Calibri_MSFontService,sans-serif" font-weight="400" font-size="50" transform="matrix(1 0 0 1 1079.55 430)">Dynamic ORM: </text><text font-family="Courier New,Courier New_MSFontService,sans-serif" font-weight="400" font-size="41" transform="matrix(1 0 0 1 1396.95 430)">ProbeApp</text><text font-family="Calibri,Calibri_MSFontService,sans-serif" font-weight="400" font-size="50" transform="matrix(1 0 0 1 1079.55 489)">Process Probing: </text><text font-family="Courier New,Courier New_MSFontService,sans-serif" font-weight="400" font-size="41" transform="matrix(1 0 0 1 1429.03 489)">SimProbe</text><text font-family="Calibri,Calibri_MSFontService,sans-serif" font-style="italic" font-weight="400" font-size="50" transform="matrix(1 0 0 1 106.333 344)">Static Architecture</text><text font-family="Calibri,Calibri_MSFontService,sans-serif" font-style="italic" font-weight="400" font-size="50" transform="matrix(1 0 0 1 1009.25 341)">Dynamic Architecture</text><path d="M2.2915-0.0278938 2.90324 50.2273-1.67975 50.2831-2.2915 0.0278938ZM14.3049 45.5049 0.890682 73.1702-13.193 45.8396Z" transform="matrix(-1 0 0 1 1399.39 512.5)"/><rect x="1045.5" y="585.5" width="706" height="96.0002" stroke="#000000" stroke-width="4.58333" stroke-miterlimit="8" fill="none"/><text font-family="Calibri,Calibri_MSFontService,sans-serif" font-weight="400" font-size="50" transform="matrix(1 0 0 1 1077.77 650)">Running Simulation: </text><text font-family="Courier New,Courier New_MSFontService,sans-serif" font-weight="400" font-size="41" transform="matrix(1 0 0 1 1499.44 650)">Probe(</text><text font-family="Courier New,Courier New_MSFontService,sans-serif" font-weight="400" font-size="41" transform="matrix(1 0 0 1 1647.25 650)">)</text><path d="M2.29167-1.1303e-05 2.29191 50.2535-2.29142 50.2536-2.29167 1.1303e-05ZM13.7502 45.6701 0.000360892 73.1702-13.7498 45.6703Z" transform="matrix(-1 0 0 1 1398.5 681.5)"/><rect x="1045.5" y="754.5" width="706" height="194" stroke="#000000" stroke-width="4.58333" stroke-miterlimit="8" fill="none"/><text font-family="Calibri,Calibri_MSFontService,sans-serif" font-weight="400" font-size="50" transform="matrix(1 0 0 1 1077.77 807)">Data Externalisation:</text><text font-family="Calibri,Calibri_MSFontService,sans-serif" font-weight="400" font-size="50" transform="matrix(1 0 0 1 1141.94 868)">REST Architecture</text><text font-family="Calibri,Calibri_MSFontService,sans-serif" font-weight="400" font-size="50" transform="matrix(1 0 0 1 1141.94 928)">Integrated Web Application</text></g></svg>